<mxfile host="65bd71144e">
    <diagram id="fjN8D4Odn0497USpxgly" name="Page-1">
        <mxGraphModel dx="1278" dy="1762" grid="1" gridSize="10" guides="1" tooltips="1" connect="1" arrows="1" fold="1" page="1" pageScale="1" pageWidth="1169" pageHeight="827" background="#ffffff" math="0" shadow="0">
            <root>
                <mxCell id="0"/>
                <mxCell id="1" parent="0"/>
                <mxCell id="166" value="«component»&lt;br&gt;&lt;b&gt;Storage&lt;/b&gt;" style="html=1;dropTarget=0;verticalAlign=top;fillColor=#e1d5e7;strokeColor=#9673a6;" vertex="1" parent="1">
                    <mxGeometry x="610" y="-810" width="380" height="220" as="geometry"/>
                </mxCell>
                <mxCell id="167" value="" style="shape=module;jettyWidth=8;jettyHeight=4;" vertex="1" parent="166">
                    <mxGeometry x="1" width="20" height="20" relative="1" as="geometry">
                        <mxPoint x="-27" y="7" as="offset"/>
                    </mxGeometry>
                </mxCell>
                <mxCell id="120" value="«component»&lt;br&gt;&lt;b&gt;Registry&lt;/b&gt;" style="html=1;dropTarget=0;verticalAlign=top;fillColor=#dae8fc;strokeColor=#6c8ebf;" parent="1" vertex="1">
                    <mxGeometry x="31" y="-810" width="559" height="310" as="geometry"/>
                </mxCell>
                <mxCell id="121" value="" style="shape=module;jettyWidth=8;jettyHeight=4;" parent="120" vertex="1">
                    <mxGeometry x="1" width="20" height="20" relative="1" as="geometry">
                        <mxPoint x="-27" y="7" as="offset"/>
                    </mxGeometry>
                </mxCell>
                <mxCell id="176" style="edgeStyle=elbowEdgeStyle;rounded=0;elbow=vertical;html=1;" edge="1" parent="1" source="122" target="160">
                    <mxGeometry relative="1" as="geometry"/>
                </mxCell>
                <mxCell id="122" value="«schema»&lt;br&gt;&lt;b&gt;My app&lt;/b&gt;" style="html=1;dropTarget=0;verticalAlign=middle;fillColor=#ffe6cc;strokeColor=#d79b00;" parent="1" vertex="1">
                    <mxGeometry x="51" y="-570" width="160" height="50" as="geometry"/>
                </mxCell>
                <mxCell id="123" value="" style="shape=module;jettyWidth=8;jettyHeight=4;" parent="122" vertex="1">
                    <mxGeometry x="1" width="20" height="20" relative="1" as="geometry">
                        <mxPoint x="-27" y="7" as="offset"/>
                    </mxGeometry>
                </mxCell>
                <mxCell id="173" style="edgeStyle=elbowEdgeStyle;html=1;elbow=vertical;rounded=0;" edge="1" parent="1" source="126" target="162">
                    <mxGeometry relative="1" as="geometry"/>
                </mxCell>
                <mxCell id="126" value="«schema»&lt;br&gt;&lt;b&gt;LED Strip&lt;/b&gt;" style="html=1;dropTarget=0;verticalAlign=middle;fillColor=#ffe6cc;strokeColor=#d79b00;" parent="1" vertex="1">
                    <mxGeometry x="410" y="-570" width="160" height="50" as="geometry"/>
                </mxCell>
                <mxCell id="127" value="" style="shape=module;jettyWidth=8;jettyHeight=4;" parent="126" vertex="1">
                    <mxGeometry x="1" width="20" height="20" relative="1" as="geometry">
                        <mxPoint x="-27" y="7" as="offset"/>
                    </mxGeometry>
                </mxCell>
                <mxCell id="128" value="&lt;b&gt;Core&lt;/b&gt;" style="html=1;dropTarget=0;verticalAlign=middle;" parent="1" vertex="1">
                    <mxGeometry x="220.5" y="-750" width="180" height="50" as="geometry"/>
                </mxCell>
                <mxCell id="129" value="" style="shape=module;jettyWidth=8;jettyHeight=4;" parent="128" vertex="1">
                    <mxGeometry x="1" width="20" height="20" relative="1" as="geometry">
                        <mxPoint x="-27" y="7" as="offset"/>
                    </mxGeometry>
                </mxCell>
                <mxCell id="133" value="«driver»&lt;br&gt;&lt;b&gt;WS2812&lt;/b&gt;" style="html=1;dropTarget=0;verticalAlign=top;fillColor=#fff2cc;strokeColor=#d6b656;" parent="1" vertex="1">
                    <mxGeometry x="410" y="-460" width="120" height="50" as="geometry"/>
                </mxCell>
                <mxCell id="134" value="" style="shape=module;jettyWidth=8;jettyHeight=4;" parent="133" vertex="1">
                    <mxGeometry x="1" width="20" height="20" relative="1" as="geometry">
                        <mxPoint x="-27" y="7" as="offset"/>
                    </mxGeometry>
                </mxCell>
                <mxCell id="138" value="«application»&lt;br&gt;&lt;b&gt;My app&lt;/b&gt;" style="html=1;dropTarget=0;verticalAlign=middle;fillColor=#fff2cc;strokeColor=#d6b656;" parent="1" vertex="1">
                    <mxGeometry x="51" y="-460" width="160" height="50" as="geometry"/>
                </mxCell>
                <mxCell id="139" value="" style="shape=module;jettyWidth=8;jettyHeight=4;" parent="138" vertex="1">
                    <mxGeometry x="1" width="20" height="20" relative="1" as="geometry">
                        <mxPoint x="-27" y="7" as="offset"/>
                    </mxGeometry>
                </mxCell>
                <mxCell id="164" style="edgeStyle=none;html=1;" edge="1" parent="1" source="140" target="146">
                    <mxGeometry relative="1" as="geometry"/>
                </mxCell>
                <mxCell id="140" value="«storage»&lt;br&gt;&lt;b&gt;VFS&lt;/b&gt;" style="html=1;dropTarget=0;verticalAlign=middle;" parent="1" vertex="1">
                    <mxGeometry x="810" y="-660" width="160" height="50" as="geometry"/>
                </mxCell>
                <mxCell id="141" value="" style="shape=module;jettyWidth=8;jettyHeight=4;" parent="140" vertex="1">
                    <mxGeometry x="1" width="20" height="20" relative="1" as="geometry">
                        <mxPoint x="-27" y="7" as="offset"/>
                    </mxGeometry>
                </mxCell>
                <mxCell id="165" style="edgeStyle=none;html=1;" edge="1" parent="1" source="142" target="148">
                    <mxGeometry relative="1" as="geometry"/>
                </mxCell>
                <mxCell id="142" value="«storage»&lt;br&gt;&lt;b&gt;MTD&lt;/b&gt;" style="html=1;dropTarget=0;verticalAlign=middle;" parent="1" vertex="1">
                    <mxGeometry x="630" y="-660" width="160" height="50" as="geometry"/>
                </mxCell>
                <mxCell id="143" value="" style="shape=module;jettyWidth=8;jettyHeight=4;" parent="142" vertex="1">
                    <mxGeometry x="1" width="20" height="20" relative="1" as="geometry">
                        <mxPoint x="-27" y="7" as="offset"/>
                    </mxGeometry>
                </mxCell>
                <mxCell id="146" value="«module»&lt;br&gt;&lt;b&gt;VFS&lt;/b&gt;" style="html=1;dropTarget=0;verticalAlign=middle;fillColor=#fff2cc;strokeColor=#d6b656;" parent="1" vertex="1">
                    <mxGeometry x="810" y="-550" width="160" height="50" as="geometry"/>
                </mxCell>
                <mxCell id="147" value="" style="shape=module;jettyWidth=8;jettyHeight=4;" parent="146" vertex="1">
                    <mxGeometry x="1" width="20" height="20" relative="1" as="geometry">
                        <mxPoint x="-27" y="7" as="offset"/>
                    </mxGeometry>
                </mxCell>
                <mxCell id="148" value="«driver»&lt;br&gt;&lt;b&gt;MTD&lt;/b&gt;" style="html=1;dropTarget=0;verticalAlign=middle;fillColor=#fff2cc;strokeColor=#d6b656;" parent="1" vertex="1">
                    <mxGeometry x="630" y="-550" width="160" height="50" as="geometry"/>
                </mxCell>
                <mxCell id="149" value="" style="shape=module;jettyWidth=8;jettyHeight=4;" parent="148" vertex="1">
                    <mxGeometry x="1" width="20" height="20" relative="1" as="geometry">
                        <mxPoint x="-27" y="7" as="offset"/>
                    </mxGeometry>
                </mxCell>
                <mxCell id="154" value="instance" style="endArrow=block;startArrow=block;endFill=1;startFill=1;html=1;edgeStyle=orthogonalEdgeStyle;rounded=0;" parent="1" source="138" target="122" edge="1">
                    <mxGeometry width="160" relative="1" as="geometry">
                        <mxPoint x="581" y="-300" as="sourcePoint"/>
                        <mxPoint x="131" y="-490" as="targetPoint"/>
                        <Array as="points"/>
                        <mxPoint as="offset"/>
                    </mxGeometry>
                </mxCell>
                <mxCell id="155" value="" style="endArrow=block;startArrow=block;endFill=1;startFill=1;html=1;edgeStyle=orthogonalEdgeStyle;rounded=0;entryX=0.5;entryY=1;entryDx=0;entryDy=0;" parent="1" source="189" target="126" edge="1">
                    <mxGeometry width="160" relative="1" as="geometry">
                        <mxPoint x="610" y="-355" as="sourcePoint"/>
                        <mxPoint x="640" y="-460" as="targetPoint"/>
                        <Array as="points">
                            <mxPoint x="570" y="-355"/>
                            <mxPoint x="570" y="-480"/>
                            <mxPoint x="490" y="-480"/>
                        </Array>
                    </mxGeometry>
                </mxCell>
                <mxCell id="156" value="" style="endArrow=block;startArrow=block;endFill=1;startFill=1;html=1;edgeStyle=orthogonalEdgeStyle;rounded=0;entryX=0.5;entryY=1;entryDx=0;entryDy=0;" parent="1" source="187" target="126" edge="1">
                    <mxGeometry width="160" relative="1" as="geometry">
                        <mxPoint x="579.9999999999998" y="-395.0000000000001" as="sourcePoint"/>
                        <mxPoint x="580" y="-535" as="targetPoint"/>
                        <Array as="points">
                            <mxPoint x="570" y="-395"/>
                            <mxPoint x="570" y="-480"/>
                            <mxPoint x="490" y="-480"/>
                        </Array>
                    </mxGeometry>
                </mxCell>
                <mxCell id="157" value="instance" style="endArrow=block;startArrow=block;endFill=1;startFill=1;html=1;edgeStyle=orthogonalEdgeStyle;rounded=0;entryX=0.5;entryY=1;entryDx=0;entryDy=0;" parent="1" source="133" target="126" edge="1">
                    <mxGeometry x="-0.3659" width="160" relative="1" as="geometry">
                        <mxPoint x="600" y="-405" as="sourcePoint"/>
                        <mxPoint x="580" y="-535" as="targetPoint"/>
                        <Array as="points">
                            <mxPoint x="570" y="-435"/>
                            <mxPoint x="570" y="-480"/>
                            <mxPoint x="490" y="-480"/>
                        </Array>
                        <mxPoint as="offset"/>
                    </mxGeometry>
                </mxCell>
                <mxCell id="177" style="edgeStyle=orthogonalEdgeStyle;rounded=0;elbow=vertical;html=1;entryX=0.5;entryY=1;entryDx=0;entryDy=0;exitX=0.5;exitY=0;exitDx=0;exitDy=0;" edge="1" parent="1" source="160" target="128">
                    <mxGeometry relative="1" as="geometry"/>
                </mxCell>
                <mxCell id="160" value="«namespace»&lt;br&gt;&lt;b&gt;SYS&lt;/b&gt;" style="html=1;dropTarget=0;verticalAlign=middle;fillColor=#d5e8d4;strokeColor=#82b366;" vertex="1" parent="1">
                    <mxGeometry x="51" y="-660" width="160" height="50" as="geometry"/>
                </mxCell>
                <mxCell id="161" value="" style="shape=module;jettyWidth=8;jettyHeight=4;" vertex="1" parent="160">
                    <mxGeometry x="1" width="20" height="20" relative="1" as="geometry">
                        <mxPoint x="-27" y="7" as="offset"/>
                    </mxGeometry>
                </mxCell>
                <mxCell id="175" style="edgeStyle=elbowEdgeStyle;rounded=0;elbow=vertical;html=1;" edge="1" parent="1" source="162" target="128">
                    <mxGeometry relative="1" as="geometry"/>
                </mxCell>
                <mxCell id="162" value="«namespace»&lt;br&gt;&lt;b&gt;APP&lt;/b&gt;" style="html=1;dropTarget=0;verticalAlign=middle;fillColor=#d5e8d4;strokeColor=#82b366;" vertex="1" parent="1">
                    <mxGeometry x="320" y="-660" width="160" height="50" as="geometry"/>
                </mxCell>
                <mxCell id="163" value="" style="shape=module;jettyWidth=8;jettyHeight=4;" vertex="1" parent="162">
                    <mxGeometry x="1" width="20" height="20" relative="1" as="geometry">
                        <mxPoint x="-27" y="7" as="offset"/>
                    </mxGeometry>
                </mxCell>
                <mxCell id="174" style="edgeStyle=elbowEdgeStyle;rounded=0;elbow=vertical;html=1;" edge="1" parent="1" source="168" target="162">
                    <mxGeometry relative="1" as="geometry"/>
                </mxCell>
                <mxCell id="168" value="«schema»&lt;br&gt;&lt;b&gt;My app&lt;/b&gt;" style="html=1;dropTarget=0;verticalAlign=middle;fillColor=#ffe6cc;strokeColor=#d79b00;" vertex="1" parent="1">
                    <mxGeometry x="230" y="-570" width="160" height="50" as="geometry"/>
                </mxCell>
                <mxCell id="169" value="" style="shape=module;jettyWidth=8;jettyHeight=4;" vertex="1" parent="168">
                    <mxGeometry x="1" width="20" height="20" relative="1" as="geometry">
                        <mxPoint x="-27" y="7" as="offset"/>
                    </mxGeometry>
                </mxCell>
                <mxCell id="170" value="«driver»&lt;br&gt;&lt;b&gt;My app&lt;/b&gt;" style="html=1;dropTarget=0;verticalAlign=middle;fillColor=#fff2cc;strokeColor=#d6b656;" vertex="1" parent="1">
                    <mxGeometry x="230" y="-460" width="160" height="50" as="geometry"/>
                </mxCell>
                <mxCell id="171" value="" style="shape=module;jettyWidth=8;jettyHeight=4;" vertex="1" parent="170">
                    <mxGeometry x="1" width="20" height="20" relative="1" as="geometry">
                        <mxPoint x="-27" y="7" as="offset"/>
                    </mxGeometry>
                </mxCell>
                <mxCell id="172" value="instance" style="endArrow=block;startArrow=block;endFill=1;startFill=1;html=1;edgeStyle=orthogonalEdgeStyle;rounded=0;" edge="1" parent="1" source="170" target="168">
                    <mxGeometry width="160" relative="1" as="geometry">
                        <mxPoint x="760" y="-300" as="sourcePoint"/>
                        <mxPoint x="310" y="-490" as="targetPoint"/>
                        <Array as="points"/>
                        <mxPoint as="offset"/>
                    </mxGeometry>
                </mxCell>
                <mxCell id="181" style="edgeStyle=orthogonalEdgeStyle;rounded=0;html=1;elbow=vertical;" edge="1" parent="1" source="179" target="128">
                    <mxGeometry relative="1" as="geometry"/>
                </mxCell>
                <mxCell id="179" value="&lt;b&gt;Storage&lt;/b&gt;" style="html=1;dropTarget=0;verticalAlign=middle;" vertex="1" parent="1">
                    <mxGeometry x="710" y="-750" width="180" height="50" as="geometry"/>
                </mxCell>
                <mxCell id="180" value="" style="shape=module;jettyWidth=8;jettyHeight=4;" vertex="1" parent="179">
                    <mxGeometry x="1" width="20" height="20" relative="1" as="geometry">
                        <mxPoint x="-27" y="7" as="offset"/>
                    </mxGeometry>
                </mxCell>
                <mxCell id="185" value="" style="endArrow=block;startArrow=block;endFill=1;startFill=1;html=1;edgeStyle=orthogonalEdgeStyle;rounded=0;" edge="1" parent="1" source="142" target="179">
                    <mxGeometry width="160" relative="1" as="geometry">
                        <mxPoint x="730" y="-320" as="sourcePoint"/>
                        <mxPoint x="730" y="-430" as="targetPoint"/>
                    </mxGeometry>
                </mxCell>
                <mxCell id="186" value="" style="endArrow=block;startArrow=block;endFill=1;startFill=1;html=1;edgeStyle=orthogonalEdgeStyle;rounded=0;" edge="1" parent="1" source="140" target="179">
                    <mxGeometry width="160" relative="1" as="geometry">
                        <mxPoint x="720" y="-650" as="sourcePoint"/>
                        <mxPoint x="810" y="-690" as="targetPoint"/>
                    </mxGeometry>
                </mxCell>
                <mxCell id="187" value="«driver»&lt;br&gt;&lt;b&gt;SK6812&lt;/b&gt;" style="html=1;dropTarget=0;verticalAlign=top;fillColor=#fff2cc;strokeColor=#d6b656;" vertex="1" parent="1">
                    <mxGeometry x="420" y="-420" width="120" height="50" as="geometry"/>
                </mxCell>
                <mxCell id="188" value="" style="shape=module;jettyWidth=8;jettyHeight=4;" vertex="1" parent="187">
                    <mxGeometry x="1" width="20" height="20" relative="1" as="geometry">
                        <mxPoint x="-27" y="7" as="offset"/>
                    </mxGeometry>
                </mxCell>
                <mxCell id="189" value="«driver»&lt;br&gt;&lt;b&gt;UCS1903&lt;/b&gt;" style="html=1;dropTarget=0;verticalAlign=middle;fillColor=#fff2cc;strokeColor=#d6b656;" vertex="1" parent="1">
                    <mxGeometry x="430" y="-380" width="120" height="50" as="geometry"/>
                </mxCell>
                <mxCell id="190" value="" style="shape=module;jettyWidth=8;jettyHeight=4;" vertex="1" parent="189">
                    <mxGeometry x="1" width="20" height="20" relative="1" as="geometry">
                        <mxPoint x="-27" y="7" as="offset"/>
                    </mxGeometry>
                </mxCell>
            </root>
        </mxGraphModel>
    </diagram>
</mxfile>